<svg xmlns="http://www.w3.org/2000/svg"><defs><font id="Raleway" horiz-adv-x="464"><font-face font-family="Raleway" panose-1="2 11 5 3 3 1 1 6 0 3" ascent="940" descent="-234" alphabetic="0"/><glyph glyph-name="space" horiz-adv-x="255"/><glyph unicode="!" glyph-name="exclam" horiz-adv-x="252" d="M92 228v489h68V228H92zM92 0v112h68V0H92z"/><glyph unicode="&quot;" glyph-name="quotedbl" horiz-adv-x="292" d="M69 522v194h59V522H69zm95 0v194h59V522h-59z"/><glyph unicode="#" glyph-name="numbersign" horiz-adv-x="680" d="M642 457H513l-47-196h134v-54H453L403 0h-58l51 207H207L157 0H99l51 207H37v54h126l47 196H80v51h143l49 202h58l-50-202h189l49 202h58l-50-202h116v-51zM409 261l47 196H267l-47-196h189z"/><glyph unicode="$" glyph-name="dollar" horiz-adv-x="619" d="M510 577q-29 32-76 53t-108 23V386h3q1 0 4-1 57-12 102-27t78-37 49-55 17-80q0-48-18-84t-52-59-78-36T331-6v-97h-37v98Q148 2 38 97l35 57q35-38 93-65t131-32v267l-6 2q-56 13-98 27t-71 35-43 50-15 73q0 47 17 83t47 62 72 40 94 18v101h37V715q66-2 118-23t95-59l-34-56zm-5-398q0 30-11 51t-34 37-56 28-78 23V56q85 0 132 30t47 93zM136 521q0-29 9-48t29-34 50-25 73-21v259q-85-4-123-39t-38-92z"/><glyph unicode="%" glyph-name="percent" horiz-adv-x="714" d="M190 433q-31 0-58 11t-48 30-32 46-12 56q0 30 12 56t32 45 47 31 59 12q31 0 58-11t47-31 32-46 12-56q0-30-11-56t-32-45-48-31-58-11zm0 39q20 0 38 8t31 23 21 33 8 40q0 22-8 41t-21 33-32 22-37 8q-21 0-39-8t-31-23-21-33-8-40q0-21 8-40t21-33 32-23 38-8zM525-10q-31 0-58 11t-47 30-32 46-12 57q0 30 11 56t32 45 48 31 58 11q31 0 58-11t48-30 32-46 12-56q0-30-12-56t-32-46-47-31-59-11zm0 40q21 0 38 8t31 23 21 33 8 40q0 21-8 40t-21 33-32 23-37 8q-20 0-38-8t-31-23-21-33-8-40q0-22 8-41t21-33 31-22 38-8zM65 27l279 340 272 347 35-30-279-340L99-4 65 27z"/><glyph unicode="&amp;" glyph-name="ampersand" horiz-adv-x="667" d="M571 0l-82 86q-42-45-96-70T274-10q-47 0-88 14t-72 39-49 61-18 79q0 36 12 66t33 55 48 48 57 42q-27 29-45 52t-30 42-17 38-5 37q0 33 13 61t38 50 56 33 71 12q35 0 65-10t52-28 36-45 13-57q0-31-12-56t-34-49-49-44-60-42l199-208q20 38 31 82t12 94h58q-1-62-16-117t-45-101L661 0h-90zM281 45q51 0 94 21t76 60L236 353q-53-37-88-77t-35-95q0-33 14-58t39-43 54-26 61-9zM163 565q0-12 3-24t14-27 26-36 44-49q58 38 94 71t37 77q0 39-29 64t-74 25q-25 0-46-8t-36-22-24-32-9-39z"/><glyph unicode="'" glyph-name="quotesingle" horiz-adv-x="197" d="M69 521v195h59V521H69z"/><glyph unicode="(" glyph-name="parenleft" horiz-adv-x="269" d="M44 346q0 51 11 100t30 98 44 97 55 98l52-25q-20-30-42-74t-42-94-31-102-13-101q0-78 34-170t93-183l-51-27Q121 57 83 153T44 346z"/><glyph unicode=")" glyph-name="parenright" horiz-adv-x="268" d="M224 346q0-96-38-192T84-37L34-10q29 45 52 91t40 91 26 89 9 82q0 48-12 100t-32 103-41 94-44 74l53 25q29-49 54-97t44-97 30-98 11-101z"/><glyph unicode="*" glyph-name="asterisk" horiz-adv-x="321" d="M87 546l43 62-68 22 11 36 69-26v73h37v-73l69 26 11-36-68-22 44-62-32-22-42 65-43-65-31 22z"/><glyph unicode="+" glyph-name="plus" horiz-adv-x="415" d="M363 383v-56H239V192h-63v135H52v56h124v135h63V383h124z"/><glyph unicode="," glyph-name="comma" horiz-adv-x="225" d="M86-81l17 84H80v95h66V3l-25-84H86z"/><glyph unicode="-" glyph-name="hyphen" horiz-adv-x="422" d="M65 241v63h292v-63H65z"/><glyph unicode="." glyph-name="period" horiz-adv-x="189" d="M65 0v98h59V0H65z"/><glyph unicode="/" glyph-name="slash" horiz-adv-x="604" d="M576 710L104 0H27l472 710h77z"/><glyph unicode="0" glyph-name="zero" horiz-adv-x="612" d="M557 293q0-66-19-121t-52-96-80-63-100-23q-54 0-100 22t-79 63-53 96-19 122q0 66 19 121t52 96 80 64 100 23q54 0 100-23t79-63 53-96 19-122zm-69 0q0 54-13 98t-38 75-57 49-74 18q-41 0-74-17t-58-49-37-76-14-98q0-54 13-98t38-75 57-49 75-17q40 0 73 17t58 48 37 76 14 98z"/><glyph unicode="1" glyph-name="one" horiz-adv-x="428" d="M406 62V0H67v62h142v428q-8-12-27-26t-43-26-49-20-44-8v66q23 0 50 13t52 30 42 32 19 20h70V62h127z"/><glyph unicode="2" glyph-name="two" horiz-adv-x="521" d="M44 0q0 34 6 68t23 69 50 65 87 60q29 15 60 29t58 33 44 40 17 53q0 19-8 37t-25 33-41 24-58 9q-33 0-59-9t-45-23-34-27-21-24l-45 49q6 6 23 22t44 32 65 28 83 13q46 0 82-12t61-35 38-50 13-60q0-41-18-71t-44-52-57-37-54-27q-32-14-62-31t-55-39-39-47-16-58h356V0H44z"/><glyph unicode="3" glyph-name="three" horiz-adv-x="534" d="M343 236q66-11 105-60t40-121q0-45-16-82t-47-64-73-41-95-15q-76 0-133 30T38-32l47 43q21-44 64-70t108-26q75 0 118 36t43 105q0 69-45 109t-130 40h-25v58h27q77 0 118 35t41 93q0 30-11 53t-30 38-46 24-58 8q-57 0-100-25t-66-71l-44 42q12 26 34 47t50 37 62 23 70 9q46 0 84-13t67-36 43-57 16-73q0-30-9-57t-26-49-41-36-56-19z"/><glyph unicode="4" glyph-name="four" horiz-adv-x="546" d="M356-127V51H23v60l355 460h46V113h88V51h-88v-178h-68zM95 113h268v351L95 113z"/><glyph unicode="5" glyph-name="five" horiz-adv-x="545" d="M277 312q49 0 91-16t73-47 50-71 18-92q0-53-19-96t-53-74-79-48-96-17q-38 0-72 9t-64 28-52 43-39 56l45 34q28-49 76-79t107-30q37 0 69 12t56 36 37 55 14 70q0 37-13 67t-36 53-54 34-67 12q-47 0-88-20t-68-60H50q1 6 5 27t10 50 13 64 14 72q17 84 37 187h343v-63H180l-49-255q26 28 63 43t83 16z"/><glyph unicode="6" glyph-name="six" horiz-adv-x="603" d="M559 234q0-51-19-95t-54-78-80-52-99-19q-56 0-103 20t-80 59-53 93-19 125q0 108 19 188t53 134 83 80 107 26q71 0 127-35t85-97l-44-40q-21 51-66 81t-102 31q-44 0-80-21t-61-60-40-98-15-131q22 59 75 94t122 35q51 0 95-18t78-51 52-77 19-94zM309 50q38 0 71 14t59 40 40 58 15 72q0 38-15 71t-40 59-59 39-72 15q-38 0-71-14t-59-40-40-58-15-72q0-38 15-71t40-58 59-40 72-15z"/><glyph unicode="7" glyph-name="seven" horiz-adv-x="535" d="M417 520H34v63h491L166-127H88l329 647z"/><glyph unicode="8" glyph-name="eight" horiz-adv-x="593" d="M543 197q0-47-20-84t-54-65-79-41-96-15q-53 0-98 16t-77 45-51 67-18 81q0 34 12 63t33 51 45 39 52 26q-24 10-45 24t-37 34-25 42-10 49q0 44 20 77t51 57 71 35 80 12q40 0 79-12t71-34 52-57 20-77q0-26-9-49t-26-42-38-34-46-25q29-10 55-27t45-41 31-52 12-63zm-69 5q0 36-16 63t-42 47-58 29-63 10q-33 0-64-10t-56-30-40-48-15-62q0-35 16-62t41-47 57-29 64-10q32 0 63 10t57 30 40 47 16 62zM143 526q0-29 14-51t36-38 49-24 54-8q27 0 54 8t49 24 37 39 14 52q0 28-13 50t-34 38-50 24-58 8q-29 0-56-8t-49-24-34-39-13-51z"/><glyph unicode="9" glyph-name="nine" horiz-adv-x="586" d="M36 327q0 51 19 95t54 78 80 52 99 19q56 0 103-20t80-59 53-93 19-125q0-108-19-188T471-48t-83-80-107-26q-70 0-126 35T69-22l44 40q21-51 66-81t102-31q44 0 80 21t62 60 40 97 15 132q-23-59-76-94T280 87q-51 0-95 18t-78 51-52 77-19 94zm251 184q-38 0-71-14t-59-40-41-58-15-72q0-38 15-71t40-59 59-39 72-15q38 0 72 14t59 40 39 58 15 72q0 37-14 70t-40 59-59 40-72 15z"/><glyph unicode=":" glyph-name="colon" horiz-adv-x="188" d="M65 420v98h58v-98H65zM65 0v98h58V0H65z"/><glyph unicode=";" glyph-name="semicolon" horiz-adv-x="205" d="M70 420v98h58v-98H70zm6-501L93 3H70v95h66V3l-25-84H76z"/><glyph unicode="&lt;" glyph-name="less" horiz-adv-x="508" d="M33 276l419 252v-73L132 259 452 64v-75L33 239v37z"/><glyph unicode="=" glyph-name="equal" horiz-adv-x="438" d="M68 194v49h302v-49H68zm0 115v49h302v-49H68z"/><glyph unicode="&gt;" glyph-name="greater" horiz-adv-x="508" d="M474 239L55-11v75l320 195L55 455v73l419-252v-37z"/><glyph unicode="?" glyph-name="question" horiz-adv-x="476" d="M154 202q0 66 20 105t65 65q20 12 44 24t45 31 35 43 15 62q0 33-11 57t-31 40-43 25-51 8q-54 0-96-29t-65-73l-47 30q14 31 36 55t49 40 59 25 65 9q37 0 72-11t62-36 44-60 17-84q0-40-11-67t-31-48-43-34-50-29q-18-10-34-20t-29-27-20-41-8-60h-58zm1-202v107h59V0h-59z"/><glyph unicode="@" glyph-name="at" horiz-adv-x="837" d="M417 603q74 0 140-27t116-78 79-121 29-155q0-14-1-37t-7-50-14-53-26-49-40-35-58-14q-25 0-40 7t-25 21-13 29-6 35q-28-29-72-50T382 5q-71 0-110 37t-40 97q0 38 16 64t43 41 60 22 66 7q44 0 77-8t50-15q0 36-5 65t-20 51-38 33-61 12q-39 0-75-12t-65-35l-18 39q36 24 76 38t88 14q55 0 87-18t50-48 21-66 5-73V121q0-22 1-40t7-32 16-20 28-8q31 0 51 21t32 53 16 66 5 63q0 72-25 135t-69 109-105 74-130 27q-68 0-128-25t-106-71-72-107-27-136q0-71 25-133t68-109 104-73 131-27q43 0 79 10t74 28l13-32q-41-20-83-30t-84-10q-75 0-141 28T154-40 76 80 47 230q0 85 30 153t82 118 119 75 139 27zm61-533q42 20 53 47t12 55v40q-13 2-46 12t-82 10q-26 0-51-4t-44-16-30-28-12-45q0-42 30-67t77-26q25 0 49 6t44 16z"/><glyph unicode="A" glyph-name="A" horiz-adv-x="676" d="M309 710h59L663 0h-74l-92 222H178L87 0H12l297 710zm172-433L338 628 193 277h288z"/><glyph unicode="B" glyph-name="B" horiz-adv-x="666" d="M623 183q0-40-16-73t-43-58-63-38-77-14H89v710h342q37 0 67-16t51-41 32-58 12-66q0-54-27-98t-75-67q61-18 96-67t36-114zm-70 12q0 26-9 50t-25 43-39 30-49 12H159V61h265q27 0 50 11t41 29 28 43 10 51zM159 649V387h244q26 0 48 11t39 29 25 41 9 50q0 27-8 51t-24 41-37 28-46 11H159z"/><glyph unicode="C" glyph-name="C" horiz-adv-x="686" d="M42 360q0 64 22 127t66 114 106 81 143 32q95 0 162-43t100-112l-55-34q-17 35-41 59t-53 39-58 21-59 7q-64 0-113-26t-82-68-51-94-17-107q0-59 20-113t56-95 84-66 106-25q30 0 61 7t61 24 55 41 42 60l58-30q-17-40-48-70t-69-52-80-32-84-11q-73 0-134 32t-105 83-68 117-25 134z"/><glyph unicode="D" glyph-name="D" horiz-adv-x="715" d="M89 0v710h241q85 0 148-28t106-76 64-112 22-138q0-81-24-146T578 98 471 26 330 0H89zm511 356q0 64-18 117t-52 93-85 60-115 22H159V62h171q66 0 116 22t85 62 51 93 18 117z"/><glyph unicode="E" glyph-name="E" horiz-adv-x="609" d="M566 62V0H89v710h468v-62H159V392h347v-59H159V62h407z"/><glyph unicode="F" glyph-name="F" horiz-adv-x="589" d="M89 0v710h466v-62H159V387h334v-58H159V0H89z"/><glyph unicode="G" glyph-name="G" horiz-adv-x="716" d="M602 104Q503-5 374-5q-72 0-132 31t-105 82-70 115-25 133q0 71 24 136t69 114 104 79 131 30q52 0 95-11t76-32 58-49 42-63l-54-36q-35 66-91 97t-127 31q-59 0-106-25t-81-66-52-95-18-111q0-60 20-114t57-94 84-65 106-24q61 0 116 28t107 91v118H444v54h217V0h-59v104z"/><glyph unicode="H" glyph-name="H" horiz-adv-x="738" d="M649 710V0h-69v332H159V0H89v710h70V394h421v316h69z"/><glyph unicode="I" glyph-name="I" horiz-adv-x="248" d="M89 0v710h70V0H89z"/><glyph unicode="J" glyph-name="J" horiz-adv-x="481" d="M34 89q22-15 56-26t78-11q54 0 86 19t50 58 22 93 5 127v361h70V349q0-81-7-147T362 88t-70-73-124-26Q78-11 14 33l20 56z"/><glyph unicode="K" glyph-name="K" horiz-adv-x="643" d="M89 0v709h70V297l391 413h77L337 398 642 0h-77L293 357 159 218V0H89z"/><glyph unicode="L" glyph-name="L" horiz-adv-x="583" d="M89 0v710h70V62h410V0H89z"/><glyph unicode="M" glyph-name="M" horiz-adv-x="877" d="M718 0v583L459 132h-41L159 583V0H89v710h72l277-486 279 486h71V0h-70z"/><glyph unicode="N" glyph-name="N" horiz-adv-x="772" d="M159 580V0H89v710h54l470-591v590h70V0h-61L159 580z"/><glyph unicode="O" glyph-name="O" horiz-adv-x="751" d="M375-5q-74 0-135 30t-106 81-68 116-24 133q0 71 25 136t71 115 106 79 132 30q74 0 135-31t105-83 68-115 24-132q0-71-25-136t-70-114-106-79T375-5zM112 355q0-58 19-111t54-95 83-66 107-25q60 0 109 26t83 68 52 95 19 108q0 58-19 111t-55 95-83 65-106 25q-60 0-109-25t-83-68-52-95-19-108z"/><glyph unicode="P" glyph-name="P" horiz-adv-x="622" d="M89 0v710h294q46 0 84-19t67-51 44-72 16-81q0-44-15-84t-42-72-64-50-84-19H159V0H89zm70 324h227q31 0 56 13t44 36 28 52 10 62q0 33-11 62t-31 52-46 34-56 13H159V324z"/><glyph unicode="Q" glyph-name="Q" horiz-adv-x="749" d="M569 63q-41-32-89-50T375-5q-74 0-135 31t-106 81-68 115-24 133q0 71 25 136t71 115 106 79 132 30q74 0 135-31t105-83 68-115 24-132q0-73-26-139T608 99l84-99h-69l-54 63zm-194-5q45 0 83 14t70 40l-89 106h69l57-68q35 42 54 95t19 110q0 58-19 111t-55 95-83 66-106 25q-60 0-109-25t-83-68-52-95-19-109q0-58 19-111t54-95 83-66 107-25z"/><glyph unicode="R" glyph-name="R" horiz-adv-x="653" d="M89 0v710h300q46 0 84-19t67-51 43-72 16-81q0-39-11-74t-32-64-50-48-65-27L615 0h-79L369 262H159V0H89zm70 324h232q31 0 56 13t44 37 28 52 10 61q0 32-11 61t-31 52-46 35-56 13H159V324z"/><glyph unicode="S" glyph-name="S" horiz-adv-x="607" d="M504 577q-30 34-80 55t-114 21q-94 0-137-35t-43-97q0-32 11-52t36-36 61-26 89-22q57-12 102-27t78-37 49-55 17-80q0-49-19-85t-53-60-81-35T317-6Q152-6 32 97l35 57q19-20 45-38t59-31 70-21 78-8q85 0 132 30t48 93q0 33-13 55t-41 39-67 29-93 24q-56 13-98 27t-71 35-43 50-15 73q0 49 18 87t53 64 80 39 102 14q71 0 126-21t101-61l-34-56z"/><glyph unicode="T" glyph-name="T" horiz-adv-x="610" d="M593 648H340V0h-70v648H17v62h576v-62z"/><glyph unicode="U" glyph-name="U" horiz-adv-x="755" d="M377 58q67 0 111 25t71 67 37 95 11 107v358h70V352q0-72-16-136t-51-114-93-78T378-5q-84 0-141 30t-93 81-50 114-15 132v358h69V352q0-56 11-109t37-94 71-66 110-25z"/><glyph unicode="V" glyph-name="V" horiz-adv-x="679" d="M86 710L340 87l253 623h73L370 0h-61L13 710h73z"/><glyph unicode="W" glyph-name="W" horiz-adv-x="1046" d="M356 705h66l100-252 101 252h67L566 402 702 81l257 629h76L734 0h-62L523 351 373 0h-61L12 710h75L345 81l135 321-124 303z"/><glyph unicode="X" glyph-name="X" horiz-adv-x="632" d="M84 710l233-310 233 310h77L354 350 619 0h-77L317 300 92 0H13l265 350L5 710h79z"/><glyph unicode="Y" glyph-name="Y" horiz-adv-x="651" d="M93 710l232-382 234 382h76L360 264V0h-70v266L16 710h77z"/><glyph unicode="Z" glyph-name="Z" horiz-adv-x="629" d="M31 55l483 593H39v62h556v-55L118 62h476V0H31v55z"/><glyph unicode="[" glyph-name="bracketleft" horiz-adv-x="258" d="M88-40v780h119v-57h-55V17h55v-57H88z"/><glyph unicode="\" glyph-name="backslash" horiz-adv-x="568" d="M105 710L540 0h-76L28 710h77z"/><glyph unicode="]" glyph-name="bracketright" horiz-adv-x="258" d="M50-40v57h56v666H50v57h120V-40H50z"/><glyph unicode="^" glyph-name="asciicircum" horiz-adv-x="539" d="M43 303l198 407h58l197-407h-60L270 646 101 303H43z"/><glyph unicode="_" glyph-name="underscore" horiz-adv-x="511" d="M65-62V0h381v-62H65z"/><glyph unicode="`" glyph-name="grave" horiz-adv-x="222" d="M49 730h71l60-93-44-17-87 110z"/><glyph unicode="a" glyph-name="a" horiz-adv-x="545" d="M206-10q-37 0-68 12T83 37 46 88t-13 64q0 34 16 63t45 50 69 32 88 12q40 0 81-7t73-20v47q0 69-39 109t-108 41q-40 0-82-16t-85-46l-24 45q101 68 196 68 98 0 154-55t56-152V88q0-28 25-28V0q-17-3-26-3-26 0-40 13t-16 36l-2 41q-36-47-90-72T206-10zm16 52q53 0 97 20t68 53q9 9 13 19t5 20v85q-34 13-70 20t-75 7q-72 0-117-30t-45-79q0-24 9-45t26-36 40-25 49-9z"/><glyph unicode="b" glyph-name="b" horiz-adv-x="617" d="M330-10q-62 0-113 31t-81 80V0H75v730h68V412q35 53 84 85t114 33q55 0 98-23t74-61 47-87 17-100q0-55-19-104t-52-85-78-58-98-22zm-16 60q43 0 78 17t61 47 40 67 15 78q0 41-13 79t-38 67-59 47-76 18q-31 0-58-10t-50-29-41-41-30-50V178q4-27 21-50t42-41 53-27 55-10z"/><glyph unicode="c" glyph-name="c" horiz-adv-x="549" d="M39 262q0 55 19 104t53 85 83 58 106 21q74 0 129-33t83-91l-66-21q-22 40-61 62t-88 23q-40 0-74-16t-60-43-40-66-15-83q0-44 15-83t41-67 60-45 74-17q25 0 49 7t46 19 36 29 21 34l67-20q-11-28-32-51t-49-41-63-27-72-10q-57 0-105 21t-83 59-54 87-20 105z"/><glyph unicode="d" glyph-name="d" horiz-adv-x="622" d="M289-10q-54 0-100 22t-79 60-51 85-19 102q0 55 18 104t49 87 75 58 96 22q66 0 117-34t80-84v318h68V88q0-28 24-28V0q-15-3-24-3-24 0-42 15t-18 38v51q-31-51-84-81T289-10zm15 60q25 0 53 10t54 27 42 41 22 51v161q-10 27-29 50t-43 42-53 28-55 10q-42 0-76-18t-58-47-38-68-13-78q0-42 15-80t41-66 61-46 77-17z"/><glyph unicode="e" glyph-name="e" horiz-adv-x="587" d="M300-10q-57 0-104 21t-83 59-54 87-20 105q0 55 19 103t54 85 83 58 104 22q57 0 104-21t82-59 53-85 19-102v-16q0-8-1-11H110q3-42 19-77t43-62 59-40 72-15q25 0 50 7t46 19 38 29 26 39l59-16q-12-29-34-52t-51-41-64-27-73-10zm192 298q-3 42-19 76t-42 60-59 39-72 14q-38 0-72-14t-59-39-41-60-19-76h383z"/><glyph unicode="f" glyph-name="f" horiz-adv-x="330" d="M100 0v467H28v54h72v14q0 96 41 150t112 55q31 0 60-9t50-24l-21-49q-14 11-34 17t-42 6q-48 0-73-37t-25-107v-16h144v-54H168V0h-68z"/><glyph unicode="g" glyph-name="g" horiz-adv-x="618" d="M284-7q-54 0-98 22t-77 60-51 85-18 99q0 54 17 103t50 87 76 59 99 22q67 0 116-33t84-85v109h61V-2q0-54-20-95t-55-70-81-42-99-14q-90 0-145 32t-89 86l42 33q31-50 82-73t110-24q38 0 72 10t59 31 41 52 15 74v103q-30-50-82-79T284-7zm19 57q30 0 59 11t52 29 40 42 21 47v161q-11 28-30 52t-43 41-51 27-56 10q-44 0-78-18t-59-49-36-68-13-77q0-42 15-80t41-66 62-45 76-17z"/><glyph unicode="h" glyph-name="h" horiz-adv-x="583" d="M513 0h-68v291q0 89-30 133t-90 44q-29 0-57-11t-54-32-43-47-28-59V0H75v730h68V403q31 59 86 93t119 34q45 0 76-16t51-46 29-71 9-92V0z"/><glyph unicode="i" glyph-name="i" horiz-adv-x="218" d="M75 0v521h68V0H75zm0 630v100h68V630H75z"/><glyph unicode="j" glyph-name="j" horiz-adv-x="225" d="M-3-181q-33 0-62 9t-52 30l33 46q16-14 35-19t38-5q18 0 34 7t30 19 21 30 8 37v548h68V-23q0-35-13-64t-34-50-49-32-57-12zm85 811v100h68V630H82z"/><glyph unicode="k" glyph-name="k" horiz-adv-x="530" d="M447 0L255 267 143 163V0H75v730h68V234l293 286h77L300 307 521 0h-74z"/><glyph unicode="l" glyph-name="l" horiz-adv-x="272" d="M78 730h68V118q0-29 16-45t45-17q11 0 26 3t28 8l12-55q-19-8-46-13t-48-5q-47 0-74 26T78 95v635z"/><glyph unicode="m" glyph-name="m" horiz-adv-x="919" d="M850 0h-68v291q0 91-29 134t-86 43q-30 0-56-11t-49-31-40-47-26-61V0h-68v291q0 93-28 135t-86 42q-59 0-105-41t-66-108V0H75v521h62V403q32 60 84 93t115 34q66 0 105-37t49-97q73 134 201 134 44 0 74-16t49-45 27-71 9-93V0z"/><glyph unicode="n" glyph-name="n" horiz-adv-x="583" d="M513 0h-68v291q0 93-27 135t-85 42q-30 0-60-11t-55-31-46-47-29-60V0H75v521h62V403q32 57 91 92t130 35q43 0 73-16t48-45 26-71 8-93V0z"/><glyph unicode="o" glyph-name="o" horiz-adv-x="595" d="M297-10q-57 0-104 21t-81 59-54 86-19 103q0 55 19 104t54 86 82 59 103 22q56 0 103-22t82-59 54-86 20-104q0-54-19-103t-53-86-82-58-105-22zM108 258q0-44 15-81t40-66 60-45 74-16q39 0 73 16t61 45 41 67 15 82q0 43-15 81t-41 67-60 45-74 17q-39 0-73-16t-60-46-41-67-15-83z"/><glyph unicode="p" glyph-name="p" horiz-adv-x="617" d="M341-10q-66 0-116 33t-82 85v-321H75v734h61V420q32 49 83 79t111 31q54 0 99-22t78-60 51-87 19-101q0-55-17-104t-48-86-75-58-96-22zm-19 60q42 0 76 18t59 47 38 67 13 78q0 42-15 80t-41 67-61 46-77 17q-26 0-54-10t-53-28-42-41-22-50V181q12-28 30-52t42-41 51-28 56-10z"/><glyph unicode="q" glyph-name="q" horiz-adv-x="617" d="M276-10q-53 0-96 22t-75 60-48 86-17 102q0 54 19 103t52 86 79 59 98 22q30 0 58-8t54-23 45-35 36-45v102h61v-643q0-28 25-29v-59q-10-2-19-2t-19 0q-23 2-39 19t-16 42v259q-38-58-88-88T276-10zm21 60q30 0 56 10t49 26 41 39 31 48v161q-4 27-21 51t-41 44-54 30-57 11q-42 0-77-18t-61-47-40-68-14-78q0-42 14-80t39-66 59-46 76-17z"/><glyph unicode="r" glyph-name="r" horiz-adv-x="351" d="M335 461q-69-2-120-38t-72-99V0H75v521h64V396q29 60 78 94t105 34q8 0 13-1v-62z"/><glyph unicode="s" glyph-name="s" horiz-adv-x="487" d="M248-10q-61 0-119 20T29 68l31 46q44-36 89-54t98-18q63 0 100 25t38 73q0 22-10 36t-29 26-49 19-69 18q-45 11-78 22t-54 25-32 34-11 52q0 39 15 69t42 49 62 30 76 10q60 0 109-19t79-52l-33-40q-29 30-70 45t-87 15q-27 0-50-5t-40-18-28-30-10-44q0-21 7-34t23-22 40-17 60-16q50-12 88-24t63-28 39-39 13-56q0-72-55-114T248-10z"/><glyph unicode="t" glyph-name="t" horiz-adv-x="335" d="M325 25q-6-3-17-8T281 7t-34-9-40-4q-22 0-42 6t-35 18-24 32-9 44v373H25v54h72v176h68V521h120v-54H165V113q2-29 20-42t43-14q29 0 51 9t28 14l18-55z"/><glyph unicode="u" glyph-name="u" horiz-adv-x="594" d="M238-10q-85 0-126 56T70 215v306h68V227q0-177 121-177 30 0 59 10t53 29 44 45 32 59v328h68V88q0-28 24-28V0q-12-2-19-2t-11 0q-24 1-39 17t-15 43v60q-34-61-92-94T238-10z"/><glyph unicode="v" glyph-name="v" horiz-adv-x="533" d="M231 0L19 521h70L268 63l180 458h66L302 0h-71z"/><glyph unicode="w" glyph-name="w" horiz-adv-x="813" d="M731 521h67L574 0h-56L406 266 295 0h-56L15 521h66L271 70l99 238-89 212h57l68-170 68 170h58l-89-212 99-238 189 451z"/><glyph unicode="x" glyph-name="x" horiz-adv-x="504" d="M88 521l156-204 8-15 8 15 156 204h73L290 259 489 0h-73L260 203l-8 14-8-14L88 0H15l199 259L15 521h73z"/><glyph unicode="y" glyph-name="y" horiz-adv-x="542" d="M105-160q8-1 15-1t15-1q18 0 28 5t21 22 22 49 36 86L15 521h70L278 63l179 458h65L252-151q-11-29-36-50t-70-22h-19q-9 0-22 3v60z"/><glyph unicode="z" glyph-name="z" horiz-adv-x="492" d="M31 46l352 424H39v51h418v-46L106 51h350V0H31v46z"/><glyph unicode="{" glyph-name="braceleft" horiz-adv-x="259" d="M154 683V422q0-12-5-30t-22-32q16-14 21-32t6-30V26h55v-57h-94q-8 0-15 6T92-1v281q0 20-10 36t-29 19v52q10 0 17 6t13 14 7 17 2 16v270q0 19 9 24t14 6h94v-57h-55z"/><glyph unicode="|" glyph-name="bar" horiz-adv-x="231" d="M86-130v905h59v-905H86z"/><glyph unicode="}" glyph-name="braceright" horiz-adv-x="259" d="M50 683v57h94q5 0 14-5t9-25V440q0-6 2-15t6-18 12-14 18-6v-52q-19-2-28-18t-10-37V-1q0-17-7-23t-16-7H50v57h55v272q0 11 5 29t21 33q-16 14-21 32t-5 30v261H50z"/><glyph unicode="~" glyph-name="asciitilde" horiz-adv-x="511" d="M66 241q0 5 6 21t18 35 33 32 51 15q23 0 43-9t39-20 38-20 40-9q19 0 32 7t21 17 12 17 4 11h43q0-2-5-17t-19-33-35-32-54-15q-25 0-46 9t-40 20-38 20-36 9q-18 0-30-9t-19-19-11-20-4-10H66z"/><glyph glyph-name="uni00A0" horiz-adv-x="255"/><glyph unicode="¡" glyph-name="exclamdown" horiz-adv-x="251" d="M159 487V-2H91v489h68zm0 228V603H91v112h68z"/><glyph unicode="¢" glyph-name="cent" horiz-adv-x="561" d="M276-120V-9q-51 4-94 28t-73 62-48 83-18 94q0 51 16 97t47 84 73 61 97 29v116h37V529q75-2 125-34t78-89l-65-21q-23 41-59 61t-79 22V51q19 1 42 8t43 18 36 27 21 35l67-20q-12-32-36-56t-53-41-61-24-59-8v-110h-37zM113 258q0-37 12-71t34-62 52-46 65-25v412q-39-4-69-23t-51-48-32-65-11-72z"/><glyph unicode="£" glyph-name="sterling" horiz-adv-x="499" d="M52 372h94q-11 21-23 41t-22 42-16 43-7 46q0 36 14 67t39 54 57 36 71 14q54 0 102-28t79-77l-40-42q-24 42-62 66t-81 24q-24 0-45-9t-37-25-25-37-9-47q0-22 7-42t17-41 22-41 23-44h178v-54H230q8-30 8-60 0-50-23-96T135 54q36 9 73 9 21 0 39-3t35-6 33-6 35-3q20 0 41 4t48 14l17-52Q430-2 402-8t-55-7q-23 0-43 3t-40 8-40 9-44 4q-23 0-52-4T72-8L54 42q34 34 58 62t38 54 21 48 7 48q0 17-2 33t-8 31H52v54z"/><glyph unicode="¤" glyph-name="currency" horiz-adv-x="537" d="M156 480q45 39 112 39 33 0 61-10t52-29l70 71 34-33-72-72q17-23 26-51t9-59q0-30-9-58t-27-52l73-72-30-29-74 69q-22-18-50-28t-63-11q-34 0-62 10t-52 29l-71-69-30 29 71 71q-36 50-36 111 0 64 35 111l-70 71 33 33 70-71zm-11-145q0-27 9-51t27-42 39-28 48-11q25 0 47 10t40 29 26 42 10 53q0 28-9 52t-27 43-39 28-48 10q-26 0-48-10t-39-29-26-43-10-53z"/><glyph unicode="¥" glyph-name="yen" horiz-adv-x="676" d="M432 366h84v-48H405l-33-54v-27h145v-48H372V0h-70v189H159v48h143v29l-31 52H159v48h86L29 710h76l232-382 234 382h77L432 366z"/><glyph unicode="¦" glyph-name="brokenbar" horiz-adv-x="234" d="M147 277v-407H87v407h60zm0 498V368H87v407h60z"/><glyph unicode="§" glyph-name="section" horiz-adv-x="506" d="M417 195q23-14 34-40t12-62q0-48-19-82t-49-56-66-32-71-11q-33 0-62 8t-53 22-45 29T62 3l45 42q71-68 148-68 26 0 50 7t44 21 32 36 12 49q0 29-12 46t-32 26-41 12-41 5q-94 8-144 46T72 338q0 30 7 52t19 37q-21 15-36 46t-15 69q0 39 16 70t44 55 64 35 78 13q64 0 108-28t70-67l-54-25q-8 16-22 27t-31 18-35 10-36 3q-26 0-50-7t-43-21-30-36-11-49q0-32 13-50t33-29 43-14 43-5q35-3 70-11t65-25 47-45 18-72q0-31-8-55t-22-39zM138 329q0-45 24-64t59-28 71-10 61-12q14 11 21 31t8 41q0 29-12 47t-32 30-43 16-46 6q-23 1-43 3t-43 11q-11-11-18-29t-7-42z"/><glyph unicode="¨" glyph-name="dieresis" horiz-adv-x="329" d="M61 633v94h58v-94H61zm149 0v94h58v-94h-58z"/><glyph unicode="©" glyph-name="copyright" horiz-adv-x="832" d="M415-7q-79 0-146 27T152 96 76 211 48 355q0 77 27 143t77 114 116 75 147 28q79 0 147-27t117-76 77-114 28-143q0-78-28-144T679 97 562 21 415-7zm0 33q70 0 131 24t106 67 71 103 26 133q0 71-25 131t-70 104-106 69-133 25q-71 0-132-25t-105-68-70-104-25-131q0-70 25-130t69-104 105-69 133-25zm8 97q-46 0-88 16t-74 47-52 73-20 96q0 42 14 84t42 75 71 54 101 21q66 0 117-28t75-83l-66-21q-10 22-25 36t-33 22-35 11-33 3q-40 0-69-15t-49-40-30-56-10-63q0-41 15-73t38-55 51-33 56-12q38 0 76 20t55 56l66-19q-7-18-24-38t-42-38-57-29-70-11z"/><glyph unicode="ª" glyph-name="ordfeminine" horiz-adv-x="434" d="M166 346q-25 0-46 8t-38 24-25 35-9 43q0 24 11 44t31 34 47 23 60 8q27 0 54-4t47-14v28q0 43-25 68t-70 25q-53 0-114-41l-20 37q70 46 139 46 70 0 110-36t40-105V426q0-21 19-22v-52q-9-1-15-1t-13-1q-18 1-28 11t-13 25l-1 25q-25-32-62-48t-79-17zm16 45q32 0 60 11t44 32q12 12 12 26v52q-20 9-44 12t-48 4q-46 0-74-18t-28-50q0-29 22-49t56-20z"/><glyph unicode="«" glyph-name="guillemotleft" horiz-adv-x="573" d="M41 276l248 178v-59L96 259l193-134V66L41 239v37zm220 0l249 178v-59L317 259l193-134V66L261 239v37z"/><glyph unicode="¬" glyph-name="logicalnot" horiz-adv-x="582" d="M512 364V126h-60v176H73v62h439z"/><glyph unicode="­" glyph-name="uni00AD" horiz-adv-x="570" d="M65 241v63h439v-63H65z"/><glyph unicode="®" glyph-name="registered" horiz-adv-x="832" d="M416-7q-80 0-147 27T153 96 76 211 48 355q0 77 27 143t77 114 117 75 147 28q79 0 146-27t117-76 77-114 28-143q0-78-28-144T679 97 563 21 416-7zm0 32q70 0 130 24t106 67 70 103 26 135q0 70-25 130t-69 104-105 69-133 25q-72 0-133-25t-105-69-69-103-25-130q0-71 25-131t69-104 105-70 133-25zM263 580h191q29 0 54-12t43-33 28-46 10-52q0-49-28-87t-75-48l111-175h-58L433 295H316V127h-53v453zm191-239q41 0 62 27t21 69q0 42-24 68t-63 27H316V341h138z"/><glyph unicode="¯" glyph-name="overscore" horiz-adv-x="396" d="M54 663v47h289v-47H54z"/><glyph unicode="°" glyph-name="degree" horiz-adv-x="266" d="M50 642q0 35 24 58t59 24q35 0 59-23t24-59q0-36-24-60t-59-24q-35 0-59 24t-24 60zm52 30q-13-13-13-31t13-31q13-13 31-13 19 0 32 13 12 14 12 31t-12 31q-12 13-32 13-19 0-31-13z"/><glyph unicode="±" glyph-name="plusminus" horiz-adv-x="467" d="M72 61v57h323V61H72zm323 332v-57H265V196h-63v140H72v57h130v140h63V393h130z"/><glyph unicode="²" glyph-name="twosuperior" horiz-adv-x="388" d="M36 407q0 39 7 67t24 50 39 38 56 28q23 9 47 17t44 20 33 27 13 39q0 31-25 52t-77 22q-25 0-45-5t-36-14-27-18-19-18l-30 31q4 5 16 16t32 23 49 20 66 9q73 0 109-34t37-85q0-31-14-52t-36-37-45-24-46-16q-33-11-55-25t-36-29-20-30-6-29h253v-43H36z"/><glyph unicode="³" glyph-name="threesuperior" horiz-adv-x="390" d="M190 401q-63 0-105 24t-50 65l27 29q1-12 11-25t26-23 40-18 50-7q49 0 83 19t34 52q0 35-40 54t-109 20h-23v41h23q63 0 99 16t36 50q0 33-31 52t-75 20q-42 0-72-15t-45-41l-30 34q18 29 58 46t89 17q33 0 61-8t49-23 32-35 12-44q0-69-91-88 47-7 74-35t28-67q0-26-13-46t-35-35-51-21-62-8z"/><glyph unicode="´" glyph-name="acute" horiz-adv-x="222" d="M94 620l-45 17 59 93h72L94 620z"/><glyph unicode="µ" glyph-name="mu" horiz-adv-x="620" d="M82 521h68V227q0-177 123-177 30 0 58 10t53 29 44 45 32 59v328h68V88q0-28 24-28V0q-12-2-19-2t-14 0q-23 2-37 18t-14 36v66q-13-27-34-50t-47-40-57-28-61-10q-48 0-78 23t-45 62v-287H82v733z"/><glyph unicode="¶" glyph-name="paragraph" horiz-adv-x="602" d="M34 469q0 114 74 177t208 64h241v-54h-70V-80h-60v311h-74V-80h-59v311q-60 1-108 17t-82 48-52 74-18 99zm59 2q0-47 16-81t43-56 64-35 78-14v371q-98-1-149-50T93 471zm334 185h-74V285h74v371z"/><glyph unicode="·" glyph-name="middot" horiz-adv-x="189" d="M65 246v112h59V246H65z"/><glyph unicode="¸" glyph-name="cedilla" horiz-adv-x="283" d="M39-126q14-7 38-12t50-6q57 0 57 35 0 20-13 28t-37 8q-21 0-44-4T54-87l57 105 33-13-35-56q9 4 19 5t19 1q35 0 55-15t21-46q0-34-26-52t-76-18q-29 0-54 5t-45 14l17 31z"/><glyph unicode="¹" glyph-name="onesuperior" horiz-adv-x="272" d="M250 451v-45H49v45h81v309q-5-6-16-14t-24-16-29-13-27-6v45q16 0 33 8t31 18 23 19 9 10h45V451h75z"/><glyph unicode="º" glyph-name="ordmasculine" horiz-adv-x="449" d="M224 346q-40 0-73 15t-57 40-37 58-13 69q0 37 13 70t37 58 57 39 73 15q40 0 73-14t57-40 37-58 14-70q0-36-13-69t-37-58-57-40-74-15zM101 527q0-28 9-52t27-42 39-28 48-10q25 0 47 10t40 29 26 42 10 53q0 28-9 52t-27 42-39 28-48 10q-25 0-47-10t-39-29-27-42-10-53z"/><glyph unicode="»" glyph-name="guillemotright" horiz-adv-x="573" d="M532 239L284 66v59l193 134-193 136v59l248-178v-37zm-220 0L63 66v59l193 134L63 395v59l249-178v-37z"/><glyph unicode="¼" glyph-name="onequarter" horiz-adv-x="825" d="M687 0v103H459v42l242 254h31V147h57v-44h-57V0h-45zM507 147h181v191L507 147zM133 27l279 340 272 347 35-30-279-340L167-4l-34 31zm127 344v-45H59v45h81v309q-5-6-16-14t-24-16-29-13-27-6v45q16 0 33 8t31 18 23 19 9 10h45V371h75z"/><glyph unicode="½" glyph-name="onehalf" horiz-adv-x="864" d="M516 0q0 39 7 67t23 51 39 38 54 28q22 9 45 17t43 19 32 27 13 39q0 31-24 53t-75 22q-24 0-44-5t-35-14-26-19-19-18l-29 32q4 5 16 16t31 22 48 20 64 9q71 0 106-34t36-85q0-31-14-52t-34-36-44-23-44-16q-33-11-54-25t-34-30-18-30-5-29h248V0H516zM99 27l279 340 272 347 35-30-279-340L133-4 99 27zm162 344v-45H60v45h81v309q-5-6-16-14t-24-16-29-13-27-6v45q16 0 33 8t31 18 23 19 9 10h45V371h75z"/><glyph unicode="¾" glyph-name="threequarters" horiz-adv-x="837" d="M197 321q-63 0-105 24t-50 65l27 29q1-12 11-25t26-23 40-18 50-7q49 0 83 19t34 52q0 35-40 54t-109 20h-23v41h23q63 0 99 16t36 50q0 33-31 52t-75 20q-42 0-72-15t-45-41l-30 34q18 29 58 46t89 17q33 0 61-8t49-23 32-35 12-44q0-69-91-88 47-7 74-35t28-67q0-26-13-46t-35-35-51-21-62-8zM696 0v103H468v42l242 254h31V147h57v-44h-57V0h-45zM516 147h181v191L516 147zM166 27l279 340 272 347 35-30-279-340L200-4l-34 31z"/><glyph unicode="¿" glyph-name="questiondown" horiz-adv-x="469" d="M318 304q0-66-20-105t-65-65q-20-12-44-24t-45-31-35-43-15-62q0-33 11-57t31-40 43-25 51-8q54 0 96 29t65 73l47-30q-14-31-36-55t-49-40-59-25-65-9q-37 0-72 11t-62 36-44 60-17 84q0 40 11 67t31 48 43 34 50 29q18 10 34 20t29 27 20 41 8 60h58zm-1 202V399h-59v107h59z"/><glyph unicode="À" glyph-name="Agrave" horiz-adv-x="676" d="M309 710h59L663 0h-74l-92 222H178L87 0H12l297 710zm172-433L338 628 193 277h288zM245 917h71l60-93-44-17-87 110z"/><glyph unicode="Á" glyph-name="Aacute" horiz-adv-x="676" d="M309 710h59L663 0h-74l-92 222H178L87 0H12l297 710zm172-433L338 628 193 277h288zM345 807l-45 17 59 93h72l-86-110z"/><glyph unicode="Â" glyph-name="Acircumflex" horiz-adv-x="676" d="M309 710h59L663 0h-74l-92 222H178L87 0H12l297 710zm172-433L338 628 193 277h288zM215 832l98 85h50l99-85-39-21-85 63-85-63-38 21z"/><glyph unicode="Ã" glyph-name="Atilde" horiz-adv-x="676" d="M309 710h59L663 0h-74l-92 222H178L87 0H12l297 710zm172-433L338 628 193 277h288zm-81 548q-23 0-39 6t-31 13-28 14-30 7q-17 0-26-7t-15-15-7-16-2-10h-42q0 5 3 20t14 32 28 28 46 13q21 0 36-6t30-15 28-14 34-7q19 0 30 7t18 16 7 16 2 10h42q0-5-4-20t-14-31-30-28-50-13z"/><glyph unicode="Ä" glyph-name="Adieresis" horiz-adv-x="676" d="M309 710h59L663 0h-74l-92 222H178L87 0H12l297 710zm172-433L338 628 193 277h288zM235 820v94h58v-94h-58zm149 0v94h58v-94h-58z"/><glyph unicode="Å" glyph-name="Aring" horiz-adv-x="676" d="M309 710h59L663 0h-74l-92 222H178L87 0H12l297 710zm172-433L338 628 193 277h288zM264 852q0 29 21 47t53 18q32 0 53-18t21-47q0-30-21-48t-53-18q-32 0-53 18t-21 48zm74 38q-17 0-28-10t-12-28q0-17 11-28t29-11q16 0 28 11t13 28q0 17-12 27t-29 11z"/><glyph unicode="Æ" glyph-name="AE" horiz-adv-x="961" d="M431 710h481v-62H518V393h340v-62H518V62h403V0H450v222H191L50 0h-76l457 710zm14-426v342L223 284h222z"/><glyph unicode="Ç" glyph-name="Ccedilla" horiz-adv-x="683" d="M294-126q14-7 38-12t50-6q57 0 57 35 0 20-13 28t-37 8q-21 0-44-4t-36-10l44 82q-69 4-127 37t-99 84-65 114-23 130q0 64 22 127t66 114 106 81 143 32q95 0 162-43t100-112l-55-34q-17 35-41 59t-53 39-58 21-59 7q-64 0-113-26t-82-68-51-94-17-107q0-59 20-113t56-95 84-66 106-25q30 0 61 7t61 24 55 41 42 60l58-30q-16-37-44-66t-63-50-74-33-79-15l-28-46q9 4 19 5t19 1q35 0 55-15t21-46q0-34-26-52t-76-18q-29 0-54 5t-45 14l17 31z"/><glyph unicode="È" glyph-name="Egrave" horiz-adv-x="609" d="M566 62V0H89v710h468v-62H159V392h347v-59H159V62h407zM244 917h71l60-93-44-17-87 110z"/><glyph unicode="É" glyph-name="Eacute" horiz-adv-x="609" d="M343 807l-45 17 59 93h72l-86-110zM566 62V0H89v710h468v-62H159V392h347v-59H159V62h407z"/><glyph unicode="Ê" glyph-name="Ecircumflex" horiz-adv-x="609" d="M214 832l98 85h50l99-85-39-21-85 63-85-63-38 21zM566 62V0H89v710h468v-62H159V392h347v-59H159V62h407z"/><glyph unicode="Ë" glyph-name="Edieresis" horiz-adv-x="609" d="M233 820v94h58v-94h-58zm149 0v94h58v-94h-58zM566 62V0H89v710h468v-62H159V392h347v-59H159V62h407z"/><glyph unicode="Ì" glyph-name="Igrave" horiz-adv-x="248" d="M89 0v710h70V0H89zM31 917h71l60-93-44-17-87 110z"/><glyph unicode="Í" glyph-name="Iacute" horiz-adv-x="248" d="M89 0v710h70V0H89zm41 807l-45 17 59 93h72l-86-110z"/><glyph unicode="Î" glyph-name="Icircumflex" horiz-adv-x="248" d="M89 0v710h70V0H89zM1 832l98 85h50l99-85-39-21-85 63-85-63-38 21z"/><glyph unicode="Ï" glyph-name="Idieresis" horiz-adv-x="248" d="M89 0v710h70V0H89zM20 820v94h58v-94H20zm149 0v94h58v-94h-58z"/><glyph unicode="Ð" glyph-name="Eth" horiz-adv-x="721" d="M95 0v330H34v54h61v326h241q85 0 148-28t106-76 64-112 22-138q0-81-24-146T584 98 477 26 336 0H95zm511 356q0 64-18 117t-52 93-85 60-115 22H165V384h170v-54H165V62h171q66 0 116 22t85 62 51 93 18 117z"/><glyph unicode="Ñ" glyph-name="Ntilde" horiz-adv-x="772" d="M159 580V0H89v710h54l470-591v590h70V0h-61L159 580zm292 245q-23 0-39 6t-31 13-28 14-30 7q-17 0-26-7t-15-15-7-16-2-10h-42q0 5 3 20t14 32 28 28 46 13q21 0 36-6t30-15 28-14 34-7q19 0 30 7t18 16 7 16 2 10h42q0-5-4-20t-14-31-30-28-50-13z"/><glyph unicode="Ò" glyph-name="Ograve" horiz-adv-x="751" d="M375-5q-74 0-135 30t-106 81-68 116-24 133q0 71 25 136t71 115 106 79 132 30q74 0 135-31t105-83 68-115 24-132q0-71-25-136t-70-114-106-79T375-5zM112 355q0-58 19-111t54-95 83-66 107-25q60 0 109 26t83 68 52 95 19 108q0 58-19 111t-55 95-83 65-106 25q-60 0-109-25t-83-68-52-95-19-108zm171 562h71l60-93-44-17-87 110z"/><glyph unicode="Ó" glyph-name="Oacute" horiz-adv-x="751" d="M382 807l-45 17 59 93h72l-86-110zM375-5q-74 0-135 30t-106 81-68 116-24 133q0 71 25 136t71 115 106 79 132 30q74 0 135-31t105-83 68-115 24-132q0-71-25-136t-70-114-106-79T375-5zM112 355q0-58 19-111t54-95 83-66 107-25q60 0 109 26t83 68 52 95 19 108q0 58-19 111t-55 95-83 65-106 25q-60 0-109-25t-83-68-52-95-19-108z"/><glyph unicode="Ô" glyph-name="Ocircumflex" horiz-adv-x="751" d="M253 832l98 85h50l99-85-39-21-85 63-85-63-38 21zM375-5q-74 0-135 30t-106 81-68 116-24 133q0 71 25 136t71 115 106 79 132 30q74 0 135-31t105-83 68-115 24-132q0-71-25-136t-70-114-106-79T375-5zM112 355q0-58 19-111t54-95 83-66 107-25q60 0 109 26t83 68 52 95 19 108q0 58-19 111t-55 95-83 65-106 25q-60 0-109-25t-83-68-52-95-19-108z"/><glyph unicode="Õ" glyph-name="Otilde" horiz-adv-x="751" d="M375-5q-74 0-135 30t-106 81-68 116-24 133q0 71 25 136t71 115 106 79 132 30q74 0 135-31t105-83 68-115 24-132q0-71-25-136t-70-114-106-79T375-5zM112 355q0-58 19-111t54-95 83-66 107-25q60 0 109 26t83 68 52 95 19 108q0 58-19 111t-55 95-83 65-106 25q-60 0-109-25t-83-68-52-95-19-108zm326 470q-23 0-39 6t-31 13-28 14-30 7q-17 0-26-7t-15-15-7-16-2-10h-42q0 5 3 20t14 32 28 28 46 13q21 0 36-6t30-15 28-14 34-7q19 0 30 7t18 16 7 16 2 10h42q0-5-4-20t-14-31-30-28-50-13z"/><glyph unicode="Ö" glyph-name="Odieresis" horiz-adv-x="751" d="M273 820v94h58v-94h-58zm149 0v94h58v-94h-58zM375-5q-74 0-135 30t-106 81-68 116-24 133q0 71 25 136t71 115 106 79 132 30q74 0 135-31t105-83 68-115 24-132q0-71-25-136t-70-114-106-79T375-5zM112 355q0-58 19-111t54-95 83-66 107-25q60 0 109 26t83 68 52 95 19 108q0 58-19 111t-55 95-83 65-106 25q-60 0-109-25t-83-68-52-95-19-108z"/><glyph unicode="×" glyph-name="multiply" horiz-adv-x="457" d="M394 151l-44-43-122 121-121-121-43 44 121 120L65 393l44 43 119-120 121 121 43-44-120-121 122-121z"/><glyph unicode="Ø" glyph-name="Oslash" horiz-adv-x="751" d="M650 710l-57-85q54-53 84-124t31-147q0-71-25-136t-70-114-106-79T375-5q-48 0-90 13t-78 36L178 0h-77l55 83q-54 52-84 123T42 355q0 71 25 136t71 115 106 79 132 30q48 0 89-13t78-37l30 45h77zM112 355q0-62 21-118t60-98l314 472q-29 19-62 29t-70 11q-60 0-109-25t-83-68-52-95-19-108zm526 0q0 61-22 116t-60 98L242 97q59-39 133-39 60 0 109 26t83 68 52 95 19 108z"/><glyph unicode="Ù" glyph-name="Ugrave" horiz-adv-x="755" d="M377 58q67 0 111 25t71 67 37 95 11 107v358h70V352q0-72-16-136t-51-114-93-78T378-5q-84 0-141 30t-93 81-50 114-15 132v358h69V352q0-56 11-109t37-94 71-66 110-25zm-92 859h71l60-93-44-17-87 110z"/><glyph unicode="Ú" glyph-name="Uacute" horiz-adv-x="755" d="M385 807l-45 17 59 93h72l-86-110zm-8-749q67 0 111 25t71 67 37 95 11 107v358h70V352q0-72-16-136t-51-114-93-78T378-5q-84 0-141 30t-93 81-50 114-15 132v358h69V352q0-56 11-109t37-94 71-66 110-25z"/><glyph unicode="Û" glyph-name="Ucircumflex" horiz-adv-x="755" d="M255 832l98 85h50l99-85-39-21-85 63-85-63-38 21zM377 58q67 0 111 25t71 67 37 95 11 107v358h70V352q0-72-16-136t-51-114-93-78T378-5q-84 0-141 30t-93 81-50 114-15 132v358h69V352q0-56 11-109t37-94 71-66 110-25z"/><glyph unicode="Ü" glyph-name="Udieresis" horiz-adv-x="755" d="M275 820v94h58v-94h-58zm149 0v94h58v-94h-58zM377 58q67 0 111 25t71 67 37 95 11 107v358h70V352q0-72-16-136t-51-114-93-78T378-5q-84 0-141 30t-93 81-50 114-15 132v358h69V352q0-56 11-109t37-94 71-66 110-25z"/><glyph unicode="Ý" glyph-name="Yacute" horiz-adv-x="651" d="M93 710l232-382 234 382h76L360 264V0h-70v266L16 710h77zm238 97l-45 17 59 93h72l-86-110z"/><glyph unicode="Þ" glyph-name="Thorn" horiz-adv-x="603" d="M364 569q46 0 85-19t67-51 43-72 16-81q0-44-14-84t-42-72-64-50-84-19H159V0H89v710h70V569h205zm4-385q32 0 57 13t44 36 27 52 10 61q0 32-11 61t-31 52-46 35-56 13H159V184h209z"/><glyph unicode="ß" glyph-name="germandbls" horiz-adv-x="551" d="M238 57q93 1 149 39t56 115q0 35-12 64t-34 49-53 32-68 12h-19v62h18q54 0 87 31t34 83q0 27-10 47t-26 35-39 21-48 7q-33 0-58-11t-41-32-25-48-9-58V0H75v515q0 44 15 80t41 63 63 41 81 15q40 0 74-12t59-33 39-50 14-65q0-27-8-52t-23-45-33-34-41-20q75-16 116-69t41-127q0-51-20-89t-56-66-86-41T238-6v63z"/><glyph unicode="à" glyph-name="agrave" horiz-adv-x="545" d="M206-10q-37 0-68 12T83 37 46 88t-13 64q0 34 16 63t45 50 69 32 88 12q40 0 81-7t73-20v47q0 69-39 109t-108 41q-40 0-82-16t-85-46l-24 45q101 68 196 68 98 0 154-55t56-152V88q0-28 25-28V0q-17-3-26-3-26 0-40 13t-16 36l-2 41q-36-47-90-72T206-10zm16 52q53 0 97 20t68 53q9 9 13 19t5 20v85q-34 13-70 20t-75 7q-72 0-117-30t-45-79q0-24 9-45t26-36 40-25 49-9zm-52 688h71l60-93-44-17-87 110z"/><glyph unicode="á" glyph-name="aacute" horiz-adv-x="545" d="M206-10q-37 0-68 12T83 37 46 88t-13 64q0 34 16 63t45 50 69 32 88 12q40 0 81-7t73-20v47q0 69-39 109t-108 41q-40 0-82-16t-85-46l-24 45q101 68 196 68 98 0 154-55t56-152V88q0-28 25-28V0q-17-3-26-3-26 0-40 13t-16 36l-2 41q-36-47-90-72T206-10zm16 52q53 0 97 20t68 53q9 9 13 19t5 20v85q-34 13-70 20t-75 7q-72 0-117-30t-45-79q0-24 9-45t26-36 40-25 49-9zm48 578l-45 17 59 93h72l-86-110z"/><glyph unicode="â" glyph-name="acircumflex" horiz-adv-x="545" d="M206-10q-37 0-68 12T83 37 46 88t-13 64q0 34 16 63t45 50 69 32 88 12q40 0 81-7t73-20v47q0 69-39 109t-108 41q-40 0-82-16t-85-46l-24 45q101 68 196 68 98 0 154-55t56-152V88q0-28 25-28V0q-17-3-26-3-26 0-40 13t-16 36l-2 41q-36-47-90-72T206-10zm16 52q53 0 97 20t68 53q9 9 13 19t5 20v85q-34 13-70 20t-75 7q-72 0-117-30t-45-79q0-24 9-45t26-36 40-25 49-9zm-82 603l98 85h50l99-85-39-21-85 63-85-63-38 21z"/><glyph unicode="ã" glyph-name="atilde" horiz-adv-x="545" d="M206-10q-37 0-68 12T83 37 46 88t-13 64q0 34 16 63t45 50 69 32 88 12q40 0 81-7t73-20v47q0 69-39 109t-108 41q-40 0-82-16t-85-46l-24 45q101 68 196 68 98 0 154-55t56-152V88q0-28 25-28V0q-17-3-26-3-26 0-40 13t-16 36l-2 41q-36-47-90-72T206-10zm16 52q53 0 97 20t68 53q9 9 13 19t5 20v85q-34 13-70 20t-75 7q-72 0-117-30t-45-79q0-24 9-45t26-36 40-25 49-9zm103 596q-23 0-39 6t-31 13-28 14-30 7q-17 0-26-7t-15-15-7-16-2-10h-42q0 5 3 20t14 32 28 28 46 13q21 0 36-6t30-15 28-14 34-7q19 0 30 7t18 16 7 16 2 10h42q0-5-4-20t-14-31-30-28-50-13z"/><glyph unicode="ä" glyph-name="adieresis" horiz-adv-x="545" d="M206-10q-37 0-68 12T83 37 46 88t-13 64q0 34 16 63t45 50 69 32 88 12q40 0 81-7t73-20v47q0 69-39 109t-108 41q-40 0-82-16t-85-46l-24 45q101 68 196 68 98 0 154-55t56-152V88q0-28 25-28V0q-17-3-26-3-26 0-40 13t-16 36l-2 41q-36-47-90-72T206-10zm16 52q53 0 97 20t68 53q9 9 13 19t5 20v85q-34 13-70 20t-75 7q-72 0-117-30t-45-79q0-24 9-45t26-36 40-25 49-9zm-62 591v94h58v-94h-58zm149 0v94h58v-94h-58z"/><glyph unicode="å" glyph-name="aring" horiz-adv-x="545" d="M206-10q-37 0-68 12T83 37 46 88t-13 64q0 34 16 63t45 50 69 32 88 12q40 0 81-7t73-20v47q0 69-39 109t-108 41q-40 0-82-16t-85-46l-24 45q101 68 196 68 98 0 154-55t56-152V88q0-28 25-28V0q-17-3-26-3-26 0-40 13t-16 36l-2 41q-36-47-90-72T206-10zm16 52q53 0 97 20t68 53q9 9 13 19t5 20v85q-34 13-70 20t-75 7q-72 0-117-30t-45-79q0-24 9-45t26-36 40-25 49-9zm-33 623q0 29 21 47t53 18q32 0 53-18t21-47q0-30-21-48t-53-18q-32 0-53 18t-21 48zm74 38q-17 0-28-10t-12-28q0-17 11-28t29-11q16 0 28 11t13 28q0 17-12 27t-29 11z"/><glyph unicode="æ" glyph-name="ae" horiz-adv-x="932" d="M205-10q-36 0-67 12T83 37 46 88t-13 64q0 34 16 63t44 50 69 32 88 12q35 0 70-5t64-15q2 19 5 39t12 37q-10 54-47 84t-97 30q-39 0-81-16t-86-46l-24 45q103 68 197 68 65 0 111-27t69-77q32 47 84 75t115 29q57 0 104-21t82-58 54-86 20-105v-12q0-8-1-12H448q3-42 20-77t44-62 62-40 74-15q25 0 50 7t46 19 37 29 26 39l60-16q-12-29-34-52t-51-41-64-27-73-10q-69 0-124 31t-91 84q-17-30-42-52t-57-36-63-20-63-7zm16 52q54 0 98 20t68 53q16 18 18 35-10 20-15 46t-6 50q-60 20-125 20-72 0-117-30t-45-79q0-24 9-45t27-36 39-25 49-9zm616 240q-3 43-19 78t-43 62-60 40-74 15q-40 0-74-14t-60-41-41-62-18-78h389z"/><glyph unicode="ç" glyph-name="ccedilla" horiz-adv-x="549" d="M223-126q14-7 38-12t50-6q57 0 57 35 0 20-13 28t-37 8q-21 0-44-4t-36-10l42 78q-53 4-97 26t-76 60-50 84-18 101q0 55 19 104t53 85 83 58 106 21q74 0 129-33t83-91l-66-21q-22 40-61 62t-88 23q-40 0-74-16t-60-43-40-66-15-83q0-44 15-83t41-67 60-45 74-17q25 0 49 7t46 19 36 29 21 34l67-20q-21-54-75-88T319-9l-26-42q9 4 19 5t19 1q35 0 55-15t21-46q0-34-26-52t-76-18q-29 0-54 5t-45 14l17 31z"/><glyph unicode="è" glyph-name="egrave" horiz-adv-x="587" d="M300-10q-57 0-104 21t-83 59-54 87-20 105q0 55 19 103t54 85 83 58 104 22q57 0 104-21t82-59 53-85 19-102v-16q0-8-1-11H110q3-42 19-77t43-62 59-40 72-15q25 0 50 7t46 19 38 29 26 39l59-16q-12-29-34-52t-51-41-64-27-73-10zm192 298q-3 42-19 76t-42 60-59 39-72 14q-38 0-72-14t-59-39-41-60-19-76h383zM204 730h71l60-93-44-17-87 110z"/><glyph unicode="é" glyph-name="eacute" horiz-adv-x="587" d="M303 620l-45 17 59 93h72l-86-110zm-3-630q-57 0-104 21t-83 59-54 87-20 105q0 55 19 103t54 85 83 58 104 22q57 0 104-21t82-59 53-85 19-102v-16q0-8-1-11H110q3-42 19-77t43-62 59-40 72-15q25 0 50 7t46 19 38 29 26 39l59-16q-12-29-34-52t-51-41-64-27-73-10zm192 298q-3 42-19 76t-42 60-59 39-72 14q-38 0-72-14t-59-39-41-60-19-76h383z"/><glyph unicode="ê" glyph-name="ecircumflex" horiz-adv-x="587" d="M174 645l98 85h50l99-85-39-21-85 63-85-63-38 21zM300-10q-57 0-104 21t-83 59-54 87-20 105q0 55 19 103t54 85 83 58 104 22q57 0 104-21t82-59 53-85 19-102v-16q0-8-1-11H110q3-42 19-77t43-62 59-40 72-15q25 0 50 7t46 19 38 29 26 39l59-16q-12-29-34-52t-51-41-64-27-73-10zm192 298q-3 42-19 76t-42 60-59 39-72 14q-38 0-72-14t-59-39-41-60-19-76h383z"/><glyph unicode="ë" glyph-name="edieresis" horiz-adv-x="587" d="M193 633v94h58v-94h-58zm149 0v94h58v-94h-58zM300-10q-57 0-104 21t-83 59-54 87-20 105q0 55 19 103t54 85 83 58 104 22q57 0 104-21t82-59 53-85 19-102v-16q0-8-1-11H110q3-42 19-77t43-62 59-40 72-15q25 0 50 7t46 19 38 29 26 39l59-16q-12-29-34-52t-51-41-64-27-73-10zm192 298q-3 42-19 76t-42 60-59 39-72 14q-38 0-72-14t-59-39-41-60-19-76h383z"/><glyph unicode="ì" glyph-name="igrave" horiz-adv-x="218" d="M75 0v521h68V0H75zM16 730h71l60-93-44-17-87 110z"/><glyph unicode="í" glyph-name="iacute" horiz-adv-x="218" d="M115 620l-45 17 59 93h72l-86-110zM75 0v521h68V0H75z"/><glyph unicode="î" glyph-name="icircumflex" horiz-adv-x="218" d="M-14 645l98 85h50l99-85-39-21-85 63-85-63-38 21zM75 0v521h68V0H75z"/><glyph unicode="ï" glyph-name="idieresis" horiz-adv-x="218" d="M5 633v94h58v-94H5zm149 0v94h58v-94h-58zM75 0v521h68V0H75z"/><glyph unicode="ð" glyph-name="eth" horiz-adv-x="602" d="M495 683l-82-51q43-42 71-87t44-91 24-90 7-87q0-65-21-117t-57-91-83-58-102-21q-52 0-98 19t-81 52-55 77-20 95q0 49 19 93t53 77 77 52 96 19q67 0 121-32t82-85q-10 63-38 125t-91 124l-112-70-22 31 106 65q-56 48-143 98h96q55-33 100-72l87 55 22-30zM111 232q0-38 14-71t40-58 60-39 73-14q40 0 75 15t61 42 41 60 15 74q0 37-15 69t-40 56-60 37-74 14q-39 0-74-14t-60-40-41-59-15-72z"/><glyph unicode="ñ" glyph-name="ntilde" horiz-adv-x="583" d="M513 0h-68v291q0 93-27 135t-85 42q-30 0-60-11t-55-31-46-47-29-60V0H75v521h62V403q32 57 91 92t130 35q43 0 73-16t48-45 26-71 8-93V0zM358 638q-23 0-39 6t-31 13-28 14-30 7q-17 0-26-7t-15-15-7-16-2-10h-42q0 5 3 20t14 32 28 28 46 13q21 0 36-6t30-15 28-14 34-7q19 0 30 7t18 16 7 16 2 10h42q0-5-4-20t-14-31-30-28-50-13z"/><glyph unicode="ò" glyph-name="ograve" horiz-adv-x="595" d="M297-10q-57 0-104 21t-81 59-54 86-19 103q0 55 19 104t54 86 82 59 103 22q56 0 103-22t82-59 54-86 20-104q0-54-19-103t-53-86-82-58-105-22zM108 258q0-44 15-81t40-66 60-45 74-16q39 0 73 16t61 45 41 67 15 82q0 43-15 81t-41 67-60 45-74 17q-39 0-73-16t-60-46-41-67-15-83zm97 472h71l60-93-44-17-87 110z"/><glyph unicode="ó" glyph-name="oacute" horiz-adv-x="595" d="M303 620l-45 17 59 93h72l-86-110zm-6-630q-57 0-104 21t-81 59-54 86-19 103q0 55 19 104t54 86 82 59 103 22q56 0 103-22t82-59 54-86 20-104q0-54-19-103t-53-86-82-58-105-22zM108 258q0-44 15-81t40-66 60-45 74-16q39 0 73 16t61 45 41 67 15 82q0 43-15 81t-41 67-60 45-74 17q-39 0-73-16t-60-46-41-67-15-83z"/><glyph unicode="ô" glyph-name="ocircumflex" horiz-adv-x="595" d="M174 645l98 85h50l99-85-39-21-85 63-85-63-38 21zM297-10q-57 0-104 21t-81 59-54 86-19 103q0 55 19 104t54 86 82 59 103 22q56 0 103-22t82-59 54-86 20-104q0-54-19-103t-53-86-82-58-105-22zM108 258q0-44 15-81t40-66 60-45 74-16q39 0 73 16t61 45 41 67 15 82q0 43-15 81t-41 67-60 45-74 17q-39 0-73-16t-60-46-41-67-15-83z"/><glyph unicode="õ" glyph-name="otilde" horiz-adv-x="595" d="M297-10q-57 0-104 21t-81 59-54 86-19 103q0 55 19 104t54 86 82 59 103 22q56 0 103-22t82-59 54-86 20-104q0-54-19-103t-53-86-82-58-105-22zM108 258q0-44 15-81t40-66 60-45 74-16q39 0 73 16t61 45 41 67 15 82q0 43-15 81t-41 67-60 45-74 17q-39 0-73-16t-60-46-41-67-15-83zm252 380q-23 0-39 6t-31 13-28 14-30 7q-17 0-26-7t-15-15-7-16-2-10h-42q0 5 3 20t14 32 28 28 46 13q21 0 36-6t30-15 28-14 34-7q19 0 30 7t18 16 7 16 2 10h42q0-5-4-20t-14-31-30-28-50-13z"/><glyph unicode="ö" glyph-name="odieresis" horiz-adv-x="595" d="M194 633v94h58v-94h-58zm149 0v94h58v-94h-58zM297-10q-57 0-104 21t-81 59-54 86-19 103q0 55 19 104t54 86 82 59 103 22q56 0 103-22t82-59 54-86 20-104q0-54-19-103t-53-86-82-58-105-22zM108 258q0-44 15-81t40-66 60-45 74-16q39 0 73 16t61 45 41 67 15 82q0 43-15 81t-41 67-60 45-74 17q-39 0-73-16t-60-46-41-67-15-83z"/><glyph unicode="÷" glyph-name="divide" horiz-adv-x="537" d="M239 399v91h59v-91h-59zm0-325v90h59V74h-59zM67 254v57h403v-57H67z"/><glyph unicode="ø" glyph-name="oslash" horiz-adv-x="595" d="M93-1l39 51q-44 38-68 92T39 259q0 55 19 104t54 86 82 59 103 22q38 0 72-10t63-29l23 32h47l-41-54q45-38 70-92t25-118q0-54-19-103t-53-86-82-58-105-22q-38 0-72 10t-64 28L139-1H93zm204 51q39 0 73 16t61 45 41 67 15 82q0 47-17 87t-47 69L199 80q44-30 98-30zM108 258q0-48 17-87t46-69l224 337q-45 31-98 31-39 0-73-16t-60-46-41-67-15-83z"/><glyph unicode="ù" glyph-name="ugrave" horiz-adv-x="594" d="M238-10q-85 0-126 56T70 215v306h68V227q0-177 121-177 30 0 59 10t53 29 44 45 32 59v328h68V88q0-28 24-28V0q-12-2-19-2t-11 0q-24 1-39 17t-15 43v60q-34-61-92-94T238-10zm-40 740h71l60-93-44-17-87 110z"/><glyph unicode="ú" glyph-name="uacute" horiz-adv-x="594" d="M297 620l-45 17 59 93h72l-86-110zM238-10q-85 0-126 56T70 215v306h68V227q0-177 121-177 30 0 59 10t53 29 44 45 32 59v328h68V88q0-28 24-28V0q-12-2-19-2t-11 0q-24 1-39 17t-15 43v60q-34-61-92-94T238-10z"/><glyph unicode="û" glyph-name="ucircumflex" horiz-adv-x="594" d="M167 645l98 85h50l99-85-39-21-85 63-85-63-38 21zm71-655q-85 0-126 56T70 215v306h68V227q0-177 121-177 30 0 59 10t53 29 44 45 32 59v328h68V88q0-28 24-28V0q-12-2-19-2t-11 0q-24 1-39 17t-15 43v60q-34-61-92-94T238-10z"/><glyph unicode="ü" glyph-name="udieresis" horiz-adv-x="594" d="M187 633v94h58v-94h-58zm149 0v94h58v-94h-58zM238-10q-85 0-126 56T70 215v306h68V227q0-177 121-177 30 0 59 10t53 29 44 45 32 59v328h68V88q0-28 24-28V0q-12-2-19-2t-11 0q-24 1-39 17t-15 43v60q-34-61-92-94T238-10z"/><glyph unicode="ý" glyph-name="yacute" horiz-adv-x="542" d="M105-160q8-1 15-1t15-1q18 0 28 5t21 22 22 49 36 86L15 521h70L278 63l179 458h65L252-151q-11-29-36-50t-70-22h-19q-9 0-22 3v60zm180 780l-45 17 59 93h72l-86-110z"/><glyph unicode="þ" glyph-name="thorn" horiz-adv-x="603" d="M565 257q-1-54-21-103t-54-87-81-60-100-23q-55 0-98 27t-67 63v-287H75v923h69V434q29 41 70 69t104 29q58 0 103-24t78-64 49-89 17-98zm-70 1q0 41-13 79t-36 68-57 47-74 18q-30 0-56-10t-47-27-39-39-29-46V172q0-24 16-47t40-40 53-27 55-11q41 0 75 18t59 47 39 67 14 79z"/><glyph unicode="ÿ" glyph-name="ydieresis" horiz-adv-x="542" d="M105-160q8-1 15-1t15-1q18 0 28 5t21 22 22 49 36 86L15 521h70L278 63l179 458h65L252-151q-11-29-36-50t-70-22h-19q-9 0-22 3v60zm70 793v94h58v-94h-58zm149 0v94h58v-94h-58z"/><glyph unicode="–" glyph-name="endash" horiz-adv-x="570" d="M65 241v63h439v-63H65z"/><glyph unicode="—" glyph-name="emdash" horiz-adv-x="901" d="M65 241v63h771v-63H65z"/><glyph unicode="‘" glyph-name="quoteleft" horiz-adv-x="196" d="M124 730l-17-106h24V521H64v103l25 106h35z"/><glyph unicode="’" glyph-name="quoteright" horiz-adv-x="190" d="M71 521l17 106H64v103h67V627l-25-106H71z"/><glyph unicode="‚" glyph-name="quotesinglbase" horiz-adv-x="225" d="M86-104L103 0H80v102h66V0l-25-104H86z"/><glyph unicode="“" glyph-name="quotedblleft" horiz-adv-x="316" d="M124 730l-17-106h24V521H64v103l25 106h35zm121 0l-17-106h24V521h-67v103l25 106h35z"/><glyph unicode="”" glyph-name="quotedblright" horiz-adv-x="311" d="M71 521l17 106H64v103h67V627l-25-106H71zm121 0l17 106h-24v103h67V627l-25-106h-35z"/><glyph unicode="„" glyph-name="quotedblbase" horiz-adv-x="343" d="M86-104L103 0H80v102h66V0l-25-104H86zm118 0L221 0h-23v102h66V0l-25-104h-35z"/><glyph unicode="•" glyph-name="bullet" horiz-adv-x="351" d="M265 346q0-38-26-64t-63-26q-37 0-63 26t-27 64q0 18 7 34t19 28 29 20 35 7q18 0 34-7t29-19 19-29 7-34z"/><glyph unicode="‹" glyph-name="guilsinglleft" horiz-adv-x="352" d="M41 276l248 178v-59L96 259l193-134V66L41 239v37z"/><glyph unicode="›" glyph-name="guilsinglright" horiz-adv-x="352" d="M312 239L63 66v59l193 134L63 395v59l249-178v-37z"/></font>
</defs>
</svg>
